<svg fill="none" height="556" viewBox="0 0 450 556" width="450" xmlns="http://www.w3.org/2000/svg">
  <!-- Define the gradients -->
  <linearGradient id="a" x1="0" y1="0" x2="0" y2="1">
    <stop offset="0" stop-color="#666666"/>
    <stop offset="1" stop-color="#333333"/>
  </linearGradient>
  <linearGradient id="b" x1="0" y1="0" x2="1" y2="0">
    <stop offset="0" stop-color="#999999"/>
    <stop offset="1" stop-color="#cccccc"/>
  </linearGradient>

  <!-- Server rack 1 -->
  <rect x="50" y="50" width="100" height="450" fill="url(#a)" stroke="#000" stroke-width="3"/>
  <!-- Server units in rack 1 -->
  <rect x="60" y="70" width="80" height="30" fill="url(#b)" />
  <rect x="60" y="120" width="80" height="30" fill="url(#b)" />
  <rect x="60" y="170" width="80" height="30" fill="url(#b)" />
  <rect x="60" y="220" width="80" height="30" fill="url(#b)" />
  <rect x="60" y="270" width="80" height="30" fill="url(#b)" />
  <rect x="60" y="320" width="80" height="30" fill="url(#b)" />
  <rect x="60" y="370" width="80" height="30" fill="url(#b)" />
  <rect x="60" y="420" width="80" height="30" fill="url(#b)" />

  <!-- Server rack 2 -->
  <rect x="180" y="50" width="100" height="450" fill="url(#a)" stroke="#000" stroke-width="3"/>
  <!-- Server units in rack 2 -->
  <rect x="190" y="70" width="80" height="30" fill="url(#b)" />
  <rect x="190" y="120" width="80" height="30" fill="url(#b)" />
  <rect x="190" y="170" width="80" height="30" fill="url(#b)" />
  <rect x="190" y="220" width="80" height="30" fill="url(#b)" />
  <rect x="190" y="270" width="80" height="30" fill="url(#b)" />
  <rect x="190" y="320" width="80" height="30" fill="url(#b)" />
  <rect x="190" y="370" width="80" height="30" fill="url(#b)" />
  <rect x="190" y="420" width="80" height="30" fill="url(#b)" />

  <!-- Server rack 3 -->
  <rect x="310" y="50" width="100" height="450" fill="url(#a)" stroke="#000" stroke-width="3"/>
  <!-- Server units in rack 3 -->
  <rect x="320" y="70" width="80" height="30" fill="url(#b)" />
  <rect x="320" y="120" width="80" height="30" fill="url(#b)" />
  <rect x="320" y="170" width="80" height="30" fill="url(#b)" />
  <rect x="320" y="220" width="80" height="30" fill="url(#b)" />
  <rect x="320" y="270" width="80" height="30" fill="url(#b)" />
  <rect x="320" y="320" width="80" height="30" fill="url(#b)" />
  <rect x="320" y="370" width="80" height="30" fill="url(#b)" />
  <rect x="320" y="420" width="80" height="30" fill="url(#b)" />
</svg>
