<?xml version="1.0" standalone="no"?>
<!DOCTYPE svg PUBLIC "-//W3C//DTD SVG 20010904//EN"
 "http://www.w3.org/TR/2001/REC-SVG-20010904/DTD/svg10.dtd">
<svg version="1.0" xmlns="http://www.w3.org/2000/svg"
 width="800.000000pt" height="600.000000pt" viewBox="0 0 800.000000 600.000000"
 preserveAspectRatio="xMidYMid meet">

<g transform="translate(0.000000,600.000000) scale(0.100000,-0.100000)"
fill="#000000" stroke="none">
<path d="M0 3000 l0 -3000 4000 0 4000 0 0 3000 0 3000 -4000 0 -4000 0 0
-3000z m3949 1906 c8 -10 8 -16 -2 -24 -17 -14 -42 2 -34 22 8 20 21 20 36 2z
m111 -156 c0 -5 -4 -10 -10 -10 -5 0 -10 5 -10 10 0 6 5 10 10 10 6 0 10 -4
10 -10z m437 -228 l-3 -178 24 -2 c30 -2 44 -11 37 -22 -3 -5 4 -7 16 -5 18 4
19 2 7 -12 -9 -12 -9 -15 0 -9 31 19 43 -106 15 -155 -25 -42 -463 -296 -533
-309 -76 -14 -133 -1 -225 53 -27 17 -72 42 -100 58 -344 191 -330 178 -320
309 12 157 17 195 27 205 3 4 5 -10 3 -29 -1 -19 2 -33 7 -30 4 3 6 9 3 14 -3
5 -1 11 4 15 6 3 7 13 4 23 -7 18 -5 17 17 -12 8 -11 10 -17 3 -13 -13 8 -12
-18 2 -30 4 -4 5 -3 1 4 -3 6 -2 14 4 18 5 3 11 1 11 -4 3 -26 4 -30 11 -37
10 -10 2 30 -11 55 -8 14 -8 22 1 27 6 4 8 3 5 -3 -4 -6 2 -22 13 -35 11 -14
17 -27 15 -30 -3 -3 2 -5 10 -5 10 0 12 4 5 12 -10 12 -4 25 12 25 5 0 7 -4 3
-9 -3 -5 0 -13 6 -16 6 -5 10 0 9 11 -6 57 1 214 10 214 6 0 10 -38 10 -92 0
-51 5 -100 10 -108 8 -13 10 -13 10 2 0 9 4 20 10 23 6 4 7 -1 3 -12 -6 -15
-4 -16 9 -6 8 7 18 10 21 6 4 -3 7 -1 7 5 0 7 3 11 8 10 4 -1 65 28 135 66 80
42 135 66 148 63 10 -3 19 -1 19 3 0 5 17 7 38 4 77 -10 122 -23 122 -36 0 -5
5 -6 10 -3 6 3 10 1 10 -5 0 -6 5 -8 10 -5 6 3 10 1 10 -4 0 -6 7 -11 15 -11
8 0 15 -5 15 -11 0 -5 5 -7 10 -4 6 3 10 1 10 -5 0 -6 4 -9 9 -5 5 3 13 0 16
-5 7 -11 47 -30 73 -36 7 -1 12 8 12 22 0 14 10 30 25 40 23 15 27 15 50 0 31
-20 34 -68 6 -88 -15 -11 -17 -17 -7 -28 6 -8 18 -16 26 -18 8 -2 21 -10 28
-19 15 -20 15 -12 13 195 0 89 3 142 9 142 7 0 9 -64 7 -178z m-836 5 c-1 -12
-15 -9 -19 4 -3 6 1 10 8 8 6 -3 11 -8 11 -12z m-128 -84 c-6 -17 -5 -17 14 0
16 14 20 14 20 2 0 -8 -4 -12 -9 -9 -4 3 -11 -2 -15 -11 -5 -16 -7 -16 -15 -1
-5 9 -6 21 -3 26 10 16 15 11 8 -7z m2887 -509 c0 -8 -4 -12 -10 -9 -5 3 -10
10 -10 16 0 5 5 9 10 9 6 0 10 -7 10 -16z m70 -40 c0 -8 -4 -12 -10 -9 -5 3
-10 10 -10 16 0 5 5 9 10 9 6 0 10 -7 10 -16z m-3392 -42 c4 -24 -7 -29 -26
-10 -18 18 -15 40 6 36 9 -2 18 -13 20 -26z m1832 -1 c-15 -29 -30 -35 -30
-13 0 22 8 32 27 32 10 0 11 -5 3 -19z m1630 3 c0 -8 -4 -12 -10 -9 -5 3 -10
10 -10 16 0 5 5 9 10 9 6 0 10 -7 10 -16z m-5925 -35 c11 -17 -1 -21 -15 -4
-8 9 -8 15 -2 15 6 0 14 -5 17 -11z m5805 2 c0 -10 -185 -121 -201 -121 -6 0
-39 16 -73 35 -35 19 -68 35 -73 35 -6 0 -140 -75 -299 -167 l-288 -166 -50
29 c-28 15 -67 37 -87 48 l-36 20 -114 -66 c-63 -36 -131 -76 -151 -88 -31
-18 -38 -19 -38 -7 0 9 62 51 152 103 l151 88 36 -20 c20 -11 59 -33 87 -49
l51 -28 269 155 c148 86 281 162 296 168 23 11 34 8 96 -26 l70 -39 39 22
c166 92 163 91 163 74z m190 -7 c0 -8 -4 -12 -10 -9 -5 3 -10 10 -10 16 0 5 5
9 10 9 6 0 10 -7 10 -16z m-3418 -19 c6 -14 8 -28 5 -31 -10 -11 -37 17 -37
37 0 27 18 23 32 -6z m1608 6 c0 -21 -13 -41 -26 -41 -17 0 -17 5 -4 31 11 20
30 26 30 10z m-4112 -29 c6 -18 -15 -14 -22 4 -4 10 -1 14 6 12 6 -2 14 -10
16 -16z m5992 2 c0 -8 -4 -12 -10 -9 -5 3 -10 10 -10 16 0 5 5 9 10 9 6 0 10
-7 10 -16z m-5925 -33 c3 -5 1 -12 -4 -15 -5 -3 -11 1 -15 9 -6 16 9 21 19 6z
m2556 -18 c4 -12 4 -25 -1 -28 -11 -7 -40 22 -40 41 0 23 31 12 41 -13z m3439
6 c0 -6 -4 -7 -10 -4 -5 3 -10 11 -10 16 0 6 5 7 10 4 6 -3 10 -11 10 -16z
m-5170 7 c0 -3 -4 -8 -10 -11 -5 -3 -10 -1 -10 4 0 6 5 11 10 11 6 0 10 -2 10
-4z m3096 -31 c-7 -18 -26 -20 -26 -2 0 18 24 41 28 27 2 -6 1 -17 -2 -25z
m2484 31 c0 -3 -4 -8 -10 -11 -5 -3 -10 -1 -10 4 0 6 5 11 10 11 6 0 10 -2 10
-4z m-5379 -32 c28 -14 178 -99 335 -190 l284 -165 183 106 c101 58 190 105
198 105 25 0 169 -90 169 -106 0 -12 -9 -10 -42 10 -24 14 -62 36 -86 49 l-43
24 -189 -109 -189 -109 -173 100 c-156 89 -409 237 -480 280 -25 14 -37 31
-23 31 3 0 28 -11 56 -26z m1236 -8 c35 -36 782 -462 842 -480 70 -21 183 -20
252 0 56 17 754 412 822 466 l39 30 -15 -29 c-23 -43 -61 -77 -140 -124 -40
-23 -204 -121 -365 -217 -161 -96 -314 -181 -340 -189 -26 -8 -85 -15 -132
-15 -107 -1 -154 17 -340 128 -74 45 -235 140 -357 213 -155 92 -232 144 -257
173 -20 23 -36 46 -36 50 0 5 -5 6 -12 2 -7 -4 -8 -3 -4 4 10 17 18 15 43 -12z
m-2197 -2 c0 -8 -4 -12 -10 -9 -5 3 -10 10 -10 16 0 5 5 9 10 9 6 0 10 -7 10
-16z m6000 -5 c0 -6 -4 -7 -10 -4 -5 3 -10 11 -10 16 0 6 5 7 10 4 6 -3 10
-11 10 -16z m-190 -3 c-23 -22 -329 -196 -345 -196 -7 0 -51 22 -97 48 l-84
49 -370 -213 c-203 -118 -367 -217 -365 -221 2 -5 58 -40 125 -78 103 -60 121
-74 121 -95 0 -22 -35 -45 -300 -197 -185 -107 -302 -168 -304 -161 -2 7 2 16
10 21 8 4 136 78 284 164 149 85 275 160 282 167 9 8 -19 29 -117 85 -157 90
-161 99 -67 153 34 20 203 118 375 217 172 100 319 181 325 181 7 0 50 -22 97
-49 46 -27 87 -48 90 -47 3 2 53 31 111 64 184 106 214 121 229 122 13 0 13
-2 0 -14z m-3204 -28 c7 -24 0 -32 -21 -25 -8 4 -15 18 -15 31 0 30 26 26 36
-6z m-2536 -4 c0 -8 -4 -12 -10 -9 -5 3 -10 10 -10 16 0 5 5 9 10 9 6 0 10 -7
10 -16z m3680 2 c0 -16 -24 -38 -33 -30 -8 9 11 44 23 44 6 0 10 -6 10 -14z
m2158 -11 c-11 -11 -130 -81 -558 -327 -239 -138 -441 -257 -449 -263 -11 -11
-3 -19 46 -47 32 -19 70 -38 83 -41 14 -4 49 -20 78 -37 39 -23 52 -36 52 -53
0 -25 -17 -47 -36 -47 -7 0 -176 -94 -376 -210 l-363 -209 -75 41 c-41 23 -85
47 -97 52 -22 11 -32 36 -14 36 5 0 48 -23 95 -51 l87 -51 361 209 c199 114
363 213 365 219 2 6 -18 23 -44 38 -27 15 -62 37 -79 49 -17 12 -52 34 -78 49
-25 15 -46 34 -46 43 0 19 -5 16 505 310 237 136 448 258 470 271 35 20 88 34
73 19z m-5768 -31 c0 -8 -4 -12 -10 -9 -5 3 -10 10 -10 16 0 5 5 9 10 9 6 0
10 -7 10 -16z m2568 -6 c14 -14 16 -48 2 -48 -10 0 -30 32 -30 49 0 14 13 14
28 -1z m-1846 -95 l76 -44 75 46 c41 25 83 45 92 45 23 0 141 -64 180 -99 17
-14 47 -35 68 -46 67 -36 61 -57 -33 -108 -39 -21 -70 -42 -70 -47 0 -7 157
-102 245 -148 17 -9 37 -1 115 44 52 30 103 54 112 54 26 0 408 -222 408 -237
0 -7 -2 -13 -5 -13 -3 0 -94 52 -203 115 l-199 116 -96 -56 c-53 -30 -104 -55
-114 -55 -10 0 -79 35 -153 78 -169 98 -171 104 -66 164 42 24 76 46 76 49 0
4 -35 24 -77 45 -43 20 -106 54 -141 75 l-62 38 -69 -40 c-37 -21 -76 -39 -85
-39 -25 0 -257 140 -250 151 5 9 19 2 176 -88z m2768 66 c-12 -22 -30 -25 -30
-6 0 17 21 38 32 31 4 -3 3 -14 -2 -25z m-3420 -5 c0 -8 -4 -12 -10 -9 -5 3
-10 10 -10 16 0 5 5 9 10 9 6 0 10 -7 10 -16z m5795 -52 c-44 -26 -115 -68
-157 -92 -42 -24 -75 -47 -72 -51 2 -5 27 -20 54 -35 80 -44 73 -56 -83 -147
-74 -42 -140 -77 -148 -77 -8 0 -52 22 -98 49 l-83 49 -104 -60 c-57 -33 -108
-66 -114 -73 -19 -23 7 -47 123 -115 81 -47 112 -71 112 -84 0 -23 30 -5 -520
-321 -236 -136 -495 -285 -574 -331 -79 -46 -145 -84 -147 -84 -2 0 -4 6 -4
13 0 7 219 140 488 294 711 411 727 420 726 429 -1 10 -64 48 -179 109 -121
64 -124 87 -23 133 35 16 94 48 133 71 38 22 76 41 83 41 7 0 51 -22 97 -49
l83 -49 123 70 c68 39 128 74 132 78 5 4 -17 22 -48 39 -91 52 -80 65 170 202
101 56 126 48 30 -9z m-3175 13 c7 -8 9 -22 6 -31 -5 -13 -9 -14 -21 -4 -16
13 -21 50 -6 50 5 0 14 -7 21 -15z m-2090 -81 c83 -47 154 -92 157 -100 8 -21
-11 -39 -83 -79 -35 -20 -64 -39 -64 -43 1 -7 709 -419 761 -442 24 -11 38 -5
175 74 82 47 156 86 165 86 27 0 279 -150 279 -167 0 -8 -3 -12 -7 -10 -5 2
-67 39 -140 81 l-132 76 -155 -90 c-85 -49 -159 -90 -164 -90 -7 0 -573 323
-780 445 -48 29 -39 52 36 95 34 20 67 41 73 47 7 7 -38 38 -141 99 -136 81
-168 104 -141 104 5 0 78 -39 161 -86z m2780 72 c0 -16 -28 -42 -36 -33 -8 7
14 47 26 47 6 0 10 -6 10 -14z m-566 -87 c-9 -15 -23 -10 -34 11 -17 32 0 47
22 21 10 -13 15 -27 12 -32z m446 17 c0 -7 -7 -19 -15 -26 -12 -10 -15 -9 -15
7 0 11 3 23 7 26 11 12 23 8 23 -7z m-2851 -47 c111 -62 115 -75 36 -120 -63
-35 -70 -43 -52 -57 26 -20 992 -575 1002 -575 6 0 66 32 133 72 68 39 128 71
132 71 5 0 36 -16 69 -35 81 -47 80 -63 -6 -112 -36 -21 -66 -42 -66 -48 0 -5
76 -54 168 -107 122 -71 171 -94 177 -85 5 7 8 2 8 -15 0 -16 -3 -28 -8 -28
-11 0 -355 199 -371 215 -22 21 -7 41 63 82 36 21 66 41 66 45 0 7 -88 58
-100 58 -5 0 -63 -31 -130 -70 -67 -38 -128 -70 -136 -70 -7 0 -245 134 -529
297 -384 222 -515 302 -515 316 0 11 22 32 60 55 33 20 60 39 60 42 0 3 -33
24 -73 47 -95 55 -117 72 -96 73 9 0 57 -23 108 -51z m1709 6 c8 -18 8 -26 0
-31 -12 -8 -38 22 -38 43 0 22 26 14 38 -12z m1832 -16 c-12 -22 -30 -25 -30
-6 0 17 21 38 32 31 4 -3 3 -14 -2 -25z m-1716 -52 c12 -19 3 -32 -19 -24 -17
7 -21 51 -3 45 6 -2 16 -12 22 -21z m1606 0 c0 -14 -20 -37 -32 -37 -12 0 -10
24 4 38 16 16 28 15 28 -1z m-1833 -59 c-3 -8 -6 -5 -6 6 -1 11 2 17 5 13 3
-3 4 -12 1 -19z m337 0 c21 -30 2 -52 -20 -24 -16 23 -19 46 -5 46 6 0 17 -10
25 -22z m1372 -23 c-7 -18 -26 -20 -26 -2 0 18 24 41 28 27 2 -6 1 -17 -2 -25z
m-1586 -65 c343 -201 716 -411 756 -426 66 -24 211 -24 276 0 57 20 781 436
814 467 13 12 24 19 24 15 0 -14 -28 -61 -46 -77 -17 -15 -478 -292 -683 -411
-133 -77 -233 -95 -356 -62 -66 17 -57 12 -370 197 -424 250 -459 273 -487
313 -33 48 -36 65 -5 37 12 -12 47 -36 77 -53z m328 28 c13 -13 16 -48 4 -48
-14 0 -32 23 -32 42 0 21 11 23 28 6z m1152 -12 c0 -16 -28 -42 -36 -33 -8 7
14 47 26 47 6 0 10 -6 10 -14z m-1032 -74 c4 -24 -7 -29 -26 -10 -18 18 -15
40 6 36 9 -2 18 -13 20 -26z m912 4 c0 -7 -7 -19 -15 -26 -12 -10 -15 -9 -15
7 0 11 3 23 7 26 11 12 23 8 23 -7z m697 -105 c98 -56 118 -73 110 -93 -2 -7
-55 -42 -117 -78 -135 -77 -130 -75 -130 -58 0 8 50 42 110 77 61 34 110 65
110 69 0 4 -49 35 -108 68 -64 37 -108 69 -111 80 -3 16 -1 17 20 2 13 -8 65
-39 116 -67z m-1495 44 c6 -14 8 -28 5 -31 -10 -11 -37 17 -37 37 0 27 18 23
32 -6z m688 6 c0 -21 -13 -41 -26 -41 -17 0 -17 5 -4 31 11 20 30 26 30 10z
m-571 -73 c5 -13 6 -27 4 -31 -7 -11 -43 23 -43 40 0 22 30 15 39 -9z m451 -7
c0 -20 -17 -37 -27 -28 -7 8 7 47 18 47 5 0 9 -9 9 -19z m-1140 -65 c-15 -15
-45 18 -36 41 7 17 9 16 27 -6 14 -17 17 -27 9 -35z m1830 14 c-6 -10 -15 -22
-20 -25 -14 -9 -13 28 2 43 17 17 30 4 18 -18z m-1722 -42 c13 -13 16 -48 4
-48 -14 0 -32 23 -32 42 0 21 11 23 28 6z m1612 -12 c0 -16 -28 -42 -36 -33
-8 7 14 47 26 47 6 0 10 -6 10 -14z m-1491 -68 c5 -13 5 -24 -1 -26 -12 -5
-38 18 -38 34 0 23 30 16 39 -8z m1371 -7 c0 -20 -17 -37 -27 -28 -7 8 7 47
18 47 5 0 9 -9 9 -19z m-1260 -266 c205 -119 401 -225 434 -237 90 -30 220
-22 307 19 90 43 759 430 788 456 l24 22 -19 -33 c-10 -18 -30 -43 -44 -56
-31 -29 -626 -386 -730 -438 -88 -44 -162 -58 -256 -47 -73 9 -132 36 -299
136 -55 33 -201 120 -325 193 -150 89 -239 148 -267 178 -49 51 -61 93 -15 49
16 -15 196 -124 402 -242z m-6 219 c20 -19 21 -44 2 -44 -14 0 -26 21 -26 46
0 18 5 18 24 -2z m1151 -23 c-6 -21 -35 -30 -35 -12 0 12 31 43 37 37 3 -2 2
-14 -2 -25z m-1028 -58 c18 -26 1 -40 -21 -17 -19 18 -21 47 -4 42 6 -2 18
-14 25 -25z m913 -14 c-12 -22 -30 -25 -30 -6 0 17 21 38 32 31 4 -3 3 -14 -2
-25z m-796 -52 c12 -19 3 -32 -19 -24 -17 7 -21 51 -3 45 6 -2 16 -12 22 -21z
m686 0 c0 -14 -20 -37 -32 -37 -12 0 -10 24 4 38 16 16 28 15 28 -1z m-566
-88 c-9 -15 -23 -10 -34 11 -17 32 0 47 22 21 10 -13 15 -27 12 -32z m432 -7
c-15 -15 -16 -15 -16 4 0 28 24 52 28 28 2 -9 -3 -24 -12 -32z m-1125 -19 c4
-12 4 -25 -1 -28 -11 -7 -40 22 -40 41 0 23 31 12 41 -13z m1832 -3 c-6 -22
-21 -35 -30 -27 -2 3 -2 15 2 26 8 28 35 28 28 1z m-1717 -62 c7 -24 0 -32
-21 -25 -8 4 -15 18 -15 31 0 30 26 26 36 -6z m1594 -23 c-7 -8 -16 -15 -21
-15 -15 0 -10 28 9 46 16 17 17 17 20 0 2 -9 -2 -23 -8 -31z m-1486 -37 c21
-30 2 -52 -20 -24 -16 23 -19 46 -5 46 6 0 17 -10 25 -22z m1372 -23 c-7 -18
-26 -20 -26 -2 0 18 24 41 28 27 2 -6 1 -17 -2 -25z m-1272 -246 c203 -117
397 -224 430 -237 86 -35 215 -35 301 0 70 28 769 430 803 461 29 27 28 11 -2
-33 -14 -21 -60 -57 -117 -91 -425 -255 -651 -386 -694 -402 -59 -24 -198 -29
-260 -10 -41 13 -124 58 -350 192 -71 43 -186 110 -255 151 -197 115 -216 128
-244 170 -32 49 -33 60 -3 33 12 -12 188 -117 391 -234z m20 198 c12 -19 3
-32 -19 -24 -17 7 -21 51 -3 45 6 -2 16 -12 22 -21z m1146 -1 c0 -16 -28 -42
-36 -33 -8 7 14 47 26 47 6 0 10 -6 10 -14z m-1030 -90 c-15 -15 -45 18 -36
41 7 17 9 16 27 -6 14 -17 17 -27 9 -35z m910 14 c-6 -10 -15 -22 -20 -25 -14
-9 -13 28 2 43 17 17 30 4 18 -18z m-802 -42 c13 -13 16 -48 4 -48 -14 0 -32
23 -32 42 0 21 11 23 28 6z m692 -7 c0 -21 -13 -41 -26 -41 -17 0 -17 5 -4 31
11 20 30 26 30 10z m-571 -73 c5 -13 5 -24 -1 -26 -12 -5 -38 18 -38 34 0 23
30 16 39 -8z m449 -10 c-4 -27 -28 -36 -28 -10 0 20 8 32 22 32 5 0 8 -10 6
-22z m-1150 -20 c13 -13 16 -48 4 -48 -14 0 -32 23 -32 42 0 21 11 23 28 6z
m1842 -28 c-6 -10 -15 -22 -20 -25 -14 -9 -13 28 2 43 17 17 30 4 18 -18z
m-1722 -42 c13 -13 16 -48 4 -48 -14 0 -32 23 -32 42 0 21 11 23 28 6z m1612
-12 c0 -16 -28 -42 -36 -33 -8 7 14 47 26 47 6 0 10 -6 10 -14z m-1491 -68 c5
-13 5 -24 -1 -26 -12 -5 -38 18 -38 34 0 23 30 16 39 -8z m1369 -10 c-4 -27
-28 -36 -28 -10 0 20 8 32 22 32 5 0 8 -10 6 -22z m-1256 -53 c6 -14 8 -28 5
-31 -10 -11 -37 17 -37 37 0 27 18 23 32 -6z m1148 6 c0 -21 -13 -41 -26 -41
-17 0 -17 5 -4 31 11 20 30 26 30 10z m689 -162 c72 -42 53 -45 166 29 68 44
86 42 165 -18 19 -15 124 -78 233 -141 156 -90 197 -118 197 -134 0 -17 -44
-46 -215 -145 -208 -119 -239 -140 -219 -147 5 -2 58 -32 119 -68 74 -43 104
-66 93 -70 -24 -10 -243 125 -243 150 0 15 49 48 217 145 120 69 220 129 223
132 7 7 -379 232 -447 261 l-49 20 -52 -23 c-97 -42 -118 -50 -126 -50 -10 0
-244 132 -323 182 -27 17 -46 34 -43 38 5 8 99 -42 304 -161z m-1718 84 c4
-12 4 -25 -1 -28 -11 -7 -40 22 -40 41 0 23 31 12 41 -13z m913 8 c7 -11 -20
-48 -29 -39 -9 8 4 48 15 48 5 0 11 -4 14 -9z m588 -174 c398 -228 428 -247
428 -267 0 -13 -36 -39 -125 -91 -69 -39 -128 -75 -130 -80 -3 -4 92 -63 210
-131 118 -68 215 -126 215 -130 0 -19 -38 0 -237 114 -176 101 -213 126 -213
144 0 18 25 37 125 95 69 39 124 76 123 81 -2 6 -120 77 -263 160 -303 174
-395 229 -395 234 0 16 60 -13 262 -129z m-1388 100 c12 -19 3 -32 -19 -24
-17 7 -21 51 -3 45 6 -2 16 -12 22 -21z m686 0 c0 -14 -20 -37 -32 -37 -12 0
-10 24 4 38 16 16 28 15 28 -1z m-576 -59 c21 -30 2 -52 -20 -24 -16 23 -19
46 -5 46 6 0 17 -10 25 -22z m452 -23 c-7 -18 -26 -20 -26 -2 0 18 24 41 28
27 2 -6 1 -17 -2 -25z m395 -78 c242 -135 509 -294 514 -306 9 -22 -9 -35
-136 -107 -66 -38 -118 -73 -116 -78 2 -6 127 -82 277 -168 151 -87 278 -162
283 -167 5 -5 5 -11 0 -14 -5 -3 -140 69 -299 161 -219 127 -290 172 -292 188
-3 18 19 34 127 95 72 41 131 77 131 80 0 3 -123 77 -273 163 -150 87 -284
166 -297 177 -45 34 1 20 81 -24z m97 -194 c74 -42 136 -83 139 -90 8 -22 -11
-37 -142 -112 -69 -40 -125 -75 -125 -79 0 -4 20 -18 44 -32 538 -309 806
-467 806 -477 0 -7 -2 -13 -4 -13 -11 0 -843 484 -860 500 -10 10 -16 24 -14
32 3 7 64 47 137 88 72 41 129 79 128 84 -3 8 -234 146 -245 146 -3 0 -46 -23
-95 -51 l-89 -50 -88 52 c-49 29 -86 57 -84 61 5 8 84 -30 151 -73 18 -11 32
-6 109 39 49 28 91 52 93 52 3 0 65 -35 139 -77z m800 -842 c3 -8 -1 -12 -9
-9 -7 2 -15 10 -17 17 -3 8 1 12 9 9 7 -2 15 -10 17 -17z m62 -37 c0 -8 -4
-12 -10 -9 -5 3 -10 10 -10 16 0 5 5 9 10 9 6 0 10 -7 10 -16z m70 -40 c0 -8
-4 -12 -10 -9 -5 3 -10 10 -10 16 0 5 5 9 10 9 6 0 10 -7 10 -16z m70 -40 c0
-8 -4 -12 -10 -9 -5 3 -10 10 -10 16 0 5 5 9 10 9 6 0 10 -7 10 -16z m690 2
c0 -3 -4 -8 -10 -11 -5 -3 -10 -1 -10 4 0 6 5 11 10 11 6 0 10 -2 10 -4z
m-620 -42 c0 -8 -4 -12 -10 -9 -5 3 -10 10 -10 16 0 5 5 9 10 9 6 0 10 -7 10
-16z m550 2 c0 -3 -4 -8 -10 -11 -5 -3 -10 -1 -10 4 0 6 5 11 10 11 6 0 10 -2
10 -4z m-480 -47 c0 -6 -4 -7 -10 -4 -5 3 -10 11 -10 16 0 6 5 7 10 4 6 -3 10
-11 10 -16z m410 7 c0 -3 -4 -8 -10 -11 -5 -3 -10 -1 -10 4 0 6 5 11 10 11 6
0 10 -2 10 -4z m-340 -47 c0 -6 -4 -7 -10 -4 -5 3 -10 11 -10 16 0 6 5 7 10 4
6 -3 10 -11 10 -16z"/>
</g>
</svg>
