<?xml version="1.0" encoding="UTF-8"?>
<svg version="1.1" xmlns="http://www.w3.org/2000/svg" width="806" height="169">
<path d="M0 0 C265.98 0 531.96 0 806 0 C806 55.77 806 111.54 806 169 C540.02 169 274.04 169 0 169 C0 113.23 0 57.46 0 0 Z " fill="#FEFDFD" transform="translate(0,0)"/>
<path d="M0 0 C6.50257934 5.57497797 12.69971343 12.36841116 14.65625 20.95703125 C13.9121319 24.69403614 12.06110242 25.58653644 8.99609375 27.66992188 C8.25488281 28.15009766 7.51367188 28.63027344 6.75 29.125 C5.17878563 30.18616586 3.60850246 31.24871158 2.0390625 32.3125 C0.81751465 33.13041016 0.81751465 33.13041016 -0.42871094 33.96484375 C-4.30788419 36.59741642 -8.08816618 39.36203843 -11.875 42.125 C-16.3544016 45.37480003 -20.84169671 48.61146631 -25.3671875 51.796875 C-26.09470215 52.30959961 -26.8222168 52.82232422 -27.57177734 53.35058594 C-29.01695793 54.36198558 -30.46779613 55.36535164 -31.92431641 56.36035156 C-35.10453457 58.5522331 -37.89806373 60.64780458 -40.65625 63.375 C-47.94564638 70.40092422 -54.25214923 70.30207854 -64.125 70.1875 C-68.38073059 70.07141954 -72.62601422 69.89022158 -76.875 69.625 C-72.63808027 65.01853149 -67.84129009 61.64632104 -62.6875 58.125 C-60.88461643 56.87876105 -59.08254952 55.63133994 -57.28125 54.3828125 C-56.37503906 53.75536133 -55.46882813 53.12791016 -54.53515625 52.48144531 C-50.55155621 49.70140725 -46.61726255 46.85541094 -42.6875 44 C-34.74611886 38.23862301 -26.74784086 32.56246696 -18.71826172 26.92480469 C-17.02628873 25.7316836 -15.34278712 24.52657279 -13.66015625 23.3203125 C-12.76167969 22.67835937 -11.86320312 22.03640625 -10.9375 21.375 C-10.18597656 20.83359375 -9.43445313 20.2921875 -8.66015625 19.734375 C-6.875 18.625 -6.875 18.625 -4.875 18.625 C-7.80998873 11.71213314 -15.4547862 7.95857255 -21.875 4.625 C-29.18534959 2.41844495 -40.12562625 2.25898089 -47.4375 4.75 C-56.50177419 9.69414956 -64.00982554 16.11204108 -68.0625 25.8046875 C-69.82334653 31.91685669 -70.28612794 38.31012204 -70.875 44.625 C-71.38289063 44.28726563 -71.89078125 43.94953125 -72.4140625 43.6015625 C-78.81106435 39.45668864 -84.04799214 36.93842036 -91.875 37.625 C-98.15385236 39.71795079 -102.82192255 42.81912748 -106.75 48.1875 C-108.84339098 54.58397245 -109.0754415 61.70766247 -106.4375 68 C-103.24541865 73.12369475 -98.22984746 76.81556866 -92.34085083 78.23641968 C-89.58938562 78.52761494 -86.89557963 78.63929772 -84.12890625 78.66796875 C-82.61392799 78.70148186 -82.61392799 78.70148186 -81.06834412 78.735672 C-78.93809551 78.77026038 -76.80752913 78.78868208 -74.67700195 78.79174805 C-71.4723629 78.81227667 -68.28204165 78.93389044 -65.08007812 79.06054688 C-50.36944065 79.33583349 -41.83507782 76.02315335 -30.85179138 66.3082428 C-27.54243459 63.49031722 -23.95763222 61.07853957 -20.375 58.625 C-13.56608646 53.8507591 -6.82136916 48.99106755 -0.11328125 44.07617188 C11.71112311 35.46966353 20.76533286 31.70579703 35.640625 34.015625 C43.13952055 36.39332359 49.51390667 42.8112108 53.125 49.625 C56.34563679 59.79543195 55.72871786 67.92994308 51.125 77.625 C46.48975013 85.79656512 39.35393477 90.76579628 30.60848999 93.98371887 C25.59384921 95.27858799 20.45780341 94.98654455 15.3125 94.91796875 C13.49830566 94.91160149 13.49830566 94.91160149 11.64746094 94.90510559 C7.80640866 94.88839038 3.96589216 94.85075015 0.125 94.8125 C-2.48827364 94.79744397 -5.10155555 94.78375717 -7.71484375 94.77148438 C-14.10174352 94.73851022 -20.48833347 94.68838184 -26.875 94.625 C-23.23559069 91.70126312 -19.55246136 88.8568327 -15.8125 86.0625 C-14.79027344 85.29808594 -13.76804687 84.53367187 -12.71484375 83.74609375 C-11.77769531 83.04613281 -10.84054688 82.34617187 -9.875 81.625 C-9.3075708 81.09318115 -8.7401416 80.5613623 -8.15551758 80.01342773 C-4.90526248 78.03460312 -2.33058596 78.27278147 1.453125 78.2890625 C2.90755649 78.27654321 4.36198359 78.26350578 5.81640625 78.25 C8.09179498 78.24608451 10.36674366 78.24994665 12.64208984 78.26464844 C24.82458411 78.51630317 24.82458411 78.51630317 35.125 72.625 C38.79396546 68.7267242 38.62532226 64.34771141 38.48046875 59.22265625 C37.99391096 55.6670416 36.8271165 53.95182254 34.125 51.625 C29.73778274 49.11413392 26.08426515 48.57031465 21.125 49.625 C17.46256038 51.4862398 14.22365786 53.82228254 10.93554688 56.27685547 C8.95702839 57.75007271 6.95753994 59.1911345 4.953125 60.62890625 C1.88658304 62.83081919 -1.17257261 65.04243088 -4.2265625 67.26171875 C-9.22043938 70.88389143 -14.22619876 74.49499478 -19.32144165 77.97375488 C-22.87746457 80.42488318 -26.2616637 82.90311112 -29.47509766 85.79248047 C-40.9143727 95.65215248 -51.41737775 96.30240328 -66.14233398 95.80493164 C-69.70054286 95.68706796 -73.25055287 95.6614047 -76.81054688 95.65039062 C-79.10945798 95.61731644 -81.40830192 95.57908391 -83.70703125 95.53515625 C-84.7510762 95.52331802 -85.79512115 95.5114798 -86.87080383 95.49928284 C-97.46666618 95.09503401 -107.07775605 91.5213549 -114.83203125 84.1484375 C-122.58296809 74.57462259 -125.8322752 63.82342109 -124.875 51.625 C-122.64468143 41.36016033 -116.71423158 32.87427571 -108.09375 26.90625 C-100.07397753 22.27511378 -92.03256551 20.94463579 -82.875 20.625 C-82.66746094 20.07972656 -82.45992187 19.53445312 -82.24609375 18.97265625 C-78.47216366 9.7352123 -72.31252689 1.18384124 -63.875 -4.375 C-61.1328125 -5.0625 -61.1328125 -5.0625 -58.875 -5.375 C-58.875 -6.035 -58.875 -6.695 -58.875 -7.375 C-39.35584434 -17.13457783 -16.69677053 -13.09949883 0 0 Z " fill="#FE9A4A" transform="translate(164.875,28.375)"/>
<path d="M0 0 C7.92 -0.061875 15.84 -0.12375 24 -0.1875 C26.4853125 -0.21481201 28.970625 -0.24212402 31.53125 -0.27026367 C33.5208284 -0.27903286 35.51041222 -0.28667577 37.5 -0.29296875 C39.02560547 -0.3159906 39.02560547 -0.3159906 40.58203125 -0.33947754 C46.7773118 -0.34173749 51.38653592 0.3086294 57 3 C59.8125 5.8125 59.8125 5.8125 62 9 C62.598125 9.86625 63.19625 10.7325 63.8125 11.625 C66.05557917 18.00006711 66.23523495 25.15189467 63.375 31.375 C61.15247235 35.1964684 58.25704863 38.0390467 55 41 C55.86625 41.515625 56.7325 42.03125 57.625 42.5625 C62.70030313 45.95405328 67.59023189 50.93799711 69 57 C69.79265874 64.022461 69.04045527 70.07551221 65 76 C59.14475704 81.93296742 51.89817394 85.11072789 43.59375 85.34057617 C41.56243815 85.33983518 39.53108074 85.32361838 37.5 85.29296875 C36.54480469 85.28994751 35.58960938 85.28692627 34.60546875 85.28381348 C31.07020106 85.26823157 27.53508857 85.22634839 24 85.1875 C16.08 85.125625 8.16 85.06375 0 85 C0 56.95 0 28.9 0 0 Z " fill="#FF822A" transform="translate(547,34)"/>
<path d="M0 0 C2.77241127 1.9066769 4.9135881 3.8926757 7.1015625 6.4453125 C7.4315625 3.4753125 7.7615625 0.5053125 8.1015625 -2.5546875 C12.7215625 -2.5546875 17.3415625 -2.5546875 22.1015625 -2.5546875 C22.23781148 5.97380016 22.34758829 14.50142369 22.41243553 23.03071213 C22.44357923 26.9924072 22.4857336 30.95331098 22.55419922 34.91455078 C22.62000845 38.74664181 22.65539563 42.57797807 22.67082596 46.41059113 C22.68180346 47.8633231 22.70323672 49.31601974 22.73594284 50.76842499 C22.94569925 60.48088171 21.77510623 68.28041468 16.1015625 76.4453125 C10.88967779 81.76648921 5.31945951 84.73303766 -1.8984375 86.4453125 C-2.66285156 86.62707031 -3.42726563 86.80882812 -4.21484375 86.99609375 C-16.25073561 89.01083547 -26.39957115 87.49281401 -36.3984375 80.4453125 C-39.43146797 78.1581092 -40.08160809 77.07897132 -41.8984375 73.4453125 C-39.5884375 71.1353125 -37.2784375 68.8253125 -34.8984375 66.4453125 C-32.66242624 67.56331813 -30.43809836 68.7093406 -28.26953125 69.953125 C-21.38171083 73.75013919 -15.78489404 75.88471178 -7.8984375 74.4453125 C-3.4913621 72.93494063 -0.00896661 70.94129622 3.1015625 67.4453125 C5.53719369 62.18947678 5.30305269 57.10942566 5.1015625 51.4453125 C4.33972656 52.16847656 4.33972656 52.16847656 3.5625 52.90625 C2.87414062 53.53789063 2.18578125 54.16953125 1.4765625 54.8203125 C0.80367188 55.44679687 0.13078125 56.07328125 -0.5625 56.71875 C-7.13399792 61.57594411 -15.08847545 61.15205592 -22.8984375 60.4453125 C-26.03063522 59.60838927 -28.31878912 58.39166883 -30.8984375 56.4453125 C-31.51203125 55.98253906 -32.125625 55.51976562 -32.7578125 55.04296875 C-39.34297242 49.28798924 -42.59577402 41.71753218 -43.4140625 33.08984375 C-44.01526138 22.1780841 -42.01021474 14.1271356 -35.2578125 5.30078125 C-25.97615226 -5.00012673 -11.98298967 -6.83069444 0 0 Z " fill="#272727" transform="translate(405.8984375,58.5546875)"/>
<path d="M0 0 C5.61 0 11.22 0 17 0 C20.41593655 8.07684588 23.62785667 16.1913252 26.65234375 24.421875 C27.07495987 25.56553528 27.49757599 26.70919556 27.93299866 27.88751221 C29.27016745 31.5074847 30.60395753 35.12869026 31.9375 38.75 C33.26509389 42.34831899 34.5933903 45.94637767 35.92202759 49.54431152 C36.7764496 51.85915522 37.62996134 54.17433513 38.48251343 56.48986816 C40.28788973 61.38933558 42.10006938 66.28508523 43.96533203 71.16210938 C44.25122696 71.91163879 44.53712189 72.66116821 44.8316803 73.43341064 C45.56382256 75.34563782 46.30223701 77.25546046 47.04125977 79.16503906 C48 82 48 82 48 85 C42.39 85 36.78 85 31 85 C29.82940422 81.87642044 28.66336789 78.75127047 27.5 75.625 C27.16613281 74.73554687 26.83226562 73.84609375 26.48828125 72.9296875 C26.17246094 72.07890625 25.85664063 71.228125 25.53125 70.3515625 C25.23798828 69.56604004 24.94472656 68.78051758 24.64257812 67.97119141 C24 66 24 66 24 64 C13.77 64 3.54 64 -7 64 C-7.33 65.65 -7.66 67.3 -8 69 C-8.43731488 70.34055251 -8.90683869 71.67108849 -9.41015625 72.98828125 C-9.6512915 73.62548096 -9.89242676 74.26268066 -10.14086914 74.91918945 C-10.59707642 76.10387817 -10.59707642 76.10387817 -11.0625 77.3125 C-12.031875 79.849375 -13.00125 82.38625 -14 85 C-19.61 85 -25.22 85 -31 85 C-28.95516749 77.96555387 -26.65983261 71.08889275 -24.12109375 64.21875 C-23.56795753 62.71186867 -23.56795753 62.71186867 -23.00364685 61.17454529 C-21.81816571 57.9484959 -20.62808016 54.7241707 -19.4375 51.5 C-18.62317524 49.2885055 -17.80888497 47.07699831 -16.99462891 44.86547852 C-11.46142355 29.85850922 -5.83903593 14.89100871 0 0 Z " fill="#272727" transform="translate(312,34)"/>
<path d="M0 0 C6.03909133 4.69579535 8.87900626 10.54683956 11.6171875 17.59765625 C11.6171875 22.21765625 11.6171875 26.83765625 11.6171875 31.59765625 C-4.2228125 31.59765625 -20.0628125 31.59765625 -36.3828125 31.59765625 C-33.68626536 40.50839371 -33.68626536 40.50839371 -27.3828125 45.59765625 C-23.70046007 47.43883246 -19.4106493 46.96831608 -15.3828125 46.59765625 C-11.98039426 45.23276945 -11.98039426 45.23276945 -9.3828125 43.59765625 C-8.7228125 43.59765625 -8.0628125 43.59765625 -7.3828125 43.59765625 C-6.7228125 42.27765625 -6.0628125 40.95765625 -5.3828125 39.59765625 C-3.79923791 39.90893141 -2.21596257 40.22172914 -0.6328125 40.53515625 C0.24890625 40.70917969 1.130625 40.88320312 2.0390625 41.0625 C4.24953803 41.52134113 6.43230818 42.03101699 8.6171875 42.59765625 C6.32306009 49.4324918 1.30213312 53.54027603 -4.89453125 57 C-13.85880081 60.7652612 -24.4504845 61.31444505 -33.6953125 58.16015625 C-42.14601258 54.13198921 -49.16156161 47.59363076 -52.59765625 38.8125 C-55.10165678 28.55980132 -54.68862012 18.42595544 -49.27734375 9.1875 C-37.42185298 -7.01907811 -17.3006032 -10.18183041 0 0 Z " fill="#FF822B" transform="translate(787.3828125,60.40234375)"/>
<path d="M0 0 C5.28 0 10.56 0 16 0 C20.12629482 8.81433771 23.39222605 17.93636016 26.75 27.0625 C27.35780294 28.70778205 27.9658736 30.35296523 28.57421875 31.99804688 C30.0525701 35.99756395 31.52728542 39.99840409 33 44 C35.240963 38.98675817 37.05355497 33.97702051 38.6640625 28.73046875 C39.02037247 27.58714836 39.02037247 27.58714836 39.38388062 26.42073059 C40.13443246 24.01072826 40.88003306 21.59923396 41.625 19.1875 C42.37781922 16.75814371 43.13171088 14.32913177 43.88754272 11.90071106 C44.35578858 10.39551788 44.82218298 8.88974722 45.28652954 7.38334656 C46.88846194 2.22307613 46.88846194 2.22307613 48 0 C52.95 0 57.9 0 63 0 C61.4460339 8.04790864 58.84912445 15.62371945 56.1328125 23.34375 C55.65167327 24.7216849 55.17087513 26.09973895 54.69039917 27.47790527 C53.68663889 30.3534367 52.67937095 33.22770665 51.66943359 36.10107422 C50.38356662 39.76012214 49.10563518 43.42188045 47.83023262 47.0845871 C46.83960658 49.92710642 45.84519575 52.76829036 44.84963608 55.60908508 C44.3773974 56.95774393 43.90619276 58.30676537 43.43610001 59.65617371 C34.63415017 84.89393744 34.63415017 84.89393744 25.875 89.375 C20.67581523 91.48088829 15.53550636 91.57720665 10 91 C9.34 90.67 8.68 90.34 8 90 C8 85.38 8 80.76 8 76 C10.50651042 76.13020833 13.01302083 76.26041667 15.51953125 76.390625 C18.13029936 76.23802857 18.13029936 76.23802857 19.74609375 74.15625 C22.96723117 68.6170978 23.24855549 64.19409881 22 58 C21.11818324 55.10920449 20.01409059 52.33384971 18.8671875 49.5390625 C18.55226349 48.7496225 18.23733948 47.9601825 17.91287231 47.14682007 C16.90905657 44.63590512 15.89247348 42.13040731 14.875 39.625 C14.21525796 37.98342947 13.55639721 36.34150447 12.8984375 34.69921875 C11.91632171 32.24907012 10.93373433 29.79912331 9.94866943 27.35015869 C7.61268313 21.54166211 5.29510996 15.72629076 3.0078125 9.8984375 C2.70438934 9.13254303 2.40096619 8.36664856 2.08834839 7.57754517 C0 2.23199383 0 2.23199383 0 0 Z " fill="#FF832C" transform="translate(620,55)"/>
<path d="M0 0 C5.05633469 3.68975775 7.2256771 9.02446054 8.5 15 C8.58428482 16.58773306 8.61779948 18.17859182 8.61352539 19.76855469 C8.61344986 20.70922791 8.61337433 21.64990112 8.61329651 22.61907959 C8.60813522 23.62650208 8.60297394 24.63392456 8.59765625 25.671875 C8.5962413 26.70942932 8.59482635 27.74698364 8.59336853 28.815979 C8.58777447 32.12734876 8.57522303 35.43865071 8.5625 38.75 C8.55748423 40.99609277 8.55292146 43.24218661 8.54882812 45.48828125 C8.53780698 50.99221359 8.52054639 56.4960953 8.5 62 C3.22 62 -2.06 62 -7.5 62 C-7.51458252 60.78940918 -7.52916504 59.57881836 -7.54418945 58.33154297 C-7.60231685 53.82490019 -7.6795489 49.31874951 -7.76245117 44.8125 C-7.79563265 42.86499032 -7.82368557 40.91738603 -7.84643555 38.96972656 C-7.88010634 36.16430485 -7.93242827 33.35974472 -7.98828125 30.5546875 C-7.99467117 29.68883026 -8.0010611 28.82297302 -8.00764465 27.93087769 C-8.12871688 22.91286345 -8.67048375 19.32042638 -11.5 15 C-15.34456754 12.43695497 -16.9220345 12.40929477 -21.5 13 C-26.87137379 15.6678418 -30.87465638 18.51499663 -33.5 24 C-33.95792664 26.93185648 -33.98820613 29.83720921 -34.01171875 32.80078125 C-34.02966995 33.63715622 -34.04762115 34.47353119 -34.06611633 35.33525085 C-34.12009509 37.99428334 -34.15407461 40.65313761 -34.1875 43.3125 C-34.22068411 45.12046744 -34.25517478 46.9284114 -34.29101562 48.73632812 C-34.37581424 53.15742324 -34.44268441 57.57846664 -34.5 62 C-39.78 62 -45.06 62 -50.5 62 C-50.5 41.21 -50.5 20.42 -50.5 -1 C-45.55 -1 -40.6 -1 -35.5 -1 C-35.17 1.97 -34.84 4.94 -34.5 8 C-33.46875 7.071875 -32.4375 6.14375 -31.375 5.1875 C-23.16825277 -1.82794521 -10.04657235 -5.61703295 0 0 Z " fill="#282828" transform="translate(492.5,57)"/>
<path d="M0 0 C5.28 0 10.56 0 16 0 C16 6.93 16 13.86 16 21 C20.29 21 24.58 21 29 21 C29 24.96 29 28.92 29 33 C24.71 33 20.42 33 16 33 C16.09356443 37.64513161 16.19966409 42.2897438 16.31738281 46.93432617 C16.35566221 48.51432451 16.39051697 50.09440969 16.421875 51.67456055 C16.46754876 53.94611645 16.52553784 56.21707509 16.5859375 58.48828125 C16.59748871 59.19463211 16.60903992 59.90098297 16.62094116 60.6287384 C16.73071048 64.27741393 16.92142364 65.88213546 19 69 C24.94 68.505 24.94 68.505 31 68 C31.99 71.96 32.98 75.92 34 80 C28.25925105 83.28042797 23.40951234 84.42723883 16.8125 84.5 C16.13574219 84.51804687 15.45898438 84.53609375 14.76171875 84.5546875 C9.72228108 84.4954 6.78384132 83.28553515 3 80 C-0.36537028 74.80159815 -0.39984111 70.42161501 -0.29296875 64.4453125 C-0.28872391 63.54376434 -0.28447906 62.64221619 -0.28010559 61.71334839 C-0.26339058 58.85025435 -0.22575192 55.98787921 -0.1875 53.125 C-0.17244387 51.17709354 -0.15875709 49.22917598 -0.14648438 47.28125 C-0.11351058 42.52055878 -0.06177813 37.76040104 0 33 C-2.64 33 -5.28 33 -8 33 C-8 29.04 -8 25.08 -8 21 C-5.36 21 -2.72 21 0 21 C0 14.07 0 7.14 0 0 Z " fill="#FF8128" transform="translate(696,35)"/>
<path d="M0 0 C4.51238994 2.29075376 8.26316048 5.50767643 9.97265625 10.34375 C11.00089679 16.69396455 11.53677031 24.00932035 8.7578125 29.93359375 C5.59889104 33.73555265 2.15296583 36.05160697 -2.796875 36.71484375 C-8.59977308 36.84147952 -13.11585291 36.89219431 -17.625 32.9453125 C-22.29427896 27.61270978 -23.81261723 22.23083728 -23.546875 15.1640625 C-22.4634663 9.28270096 -19.46371631 4.12250005 -14.625 0.58984375 C-9.95910287 -1.64838359 -4.91295252 -1.59031989 0 0 Z " fill="#FBFBFB" transform="translate(402.02734375,69.65625)"/>
<path d="M0 0 C5.28 0 10.56 0 16 0 C16 20.79 16 41.58 16 63 C10.72 63 5.44 63 0 63 C0 42.21 0 21.42 0 0 Z " fill="#252525" transform="translate(515,56)"/>
<path d="M0 0 C4.54266205 -0.13501968 9.081306 -0.23416045 13.625 -0.3125 C14.91019531 -0.35439453 16.19539062 -0.39628906 17.51953125 -0.43945312 C28.18381746 -0.57759155 28.18381746 -0.57759155 31.8359375 2.39453125 C34.88248593 6.06248757 35.29315929 8.16539704 35.21484375 12.96875 C34.89710624 15.97281372 33.91542285 17.68828277 32 20 C28.10175996 22.85005329 25.39609769 23.36108196 20.60546875 23.29296875 C19.40341797 23.28330078 18.20136719 23.27363281 16.96289062 23.26367188 C15.71701172 23.23853516 14.47113281 23.21339844 13.1875 23.1875 C11.28967773 23.16719727 11.28967773 23.16719727 9.35351562 23.14648438 C6.23549456 23.11118602 3.11769286 23.05738085 0 23 C0 15.41 0 7.82 0 0 Z " fill="#FFFDFC" transform="translate(564,82)"/>
<path d="M0 0 C4.06290008 -0.08095816 8.12418567 -0.14048645 12.1875 -0.1875 C13.91323242 -0.22520508 13.91323242 -0.22520508 15.67382812 -0.26367188 C17.34155273 -0.27817383 17.34155273 -0.27817383 19.04296875 -0.29296875 C20.06414795 -0.3086792 21.08532715 -0.32438965 22.13745117 -0.34057617 C25.45710692 0.054385 27.30507811 1.05957287 30 3 C32.57189679 6.42919572 32.502142 9.83939486 32 14 C29.98287868 17.47565519 27.88639464 19.70453512 24 21 C22.15389468 21.08239169 20.30494836 21.10743359 18.45703125 21.09765625 C17.38388672 21.09443359 16.31074219 21.09121094 15.20507812 21.08789062 C14.08552734 21.07951172 12.96597656 21.07113281 11.8125 21.0625 C10.68134766 21.05798828 9.55019531 21.05347656 8.38476562 21.04882812 C5.58982124 21.03703511 2.79490401 21.01909957 0 21 C0 14.07 0 7.14 0 0 Z " fill="#FFFDFC" transform="translate(564,48)"/>
<path d="M0 0 C2 1 2 1 3.14501953 3.81982422 C3.55349121 5.0523291 3.96196289 6.28483398 4.3828125 7.5546875 C4.60194305 8.21203888 4.82107361 8.86939026 5.04684448 9.54666138 C5.50925706 10.93926614 5.96799 12.33309726 6.42333984 13.72802734 C7.12080674 15.86216926 7.83089964 17.99178536 8.54296875 20.12109375 C12 30.57329269 12 30.57329269 12 34 C4.41 34 -3.18 34 -11 34 C-9.77707596 28.49684181 -8.72847953 23.81627986 -6.8359375 18.65234375 C-6.43632812 17.55341797 -6.03671875 16.45449219 -5.625 15.32226562 C-5.2125 14.20529297 -4.8 13.08832031 -4.375 11.9375 C-3.95476562 10.78572266 -3.53453125 9.63394531 -3.1015625 8.44726562 C-2.07271705 5.62963206 -1.03876545 2.81398816 0 0 Z " fill="#F8F8F8" transform="translate(320,52)"/>
<path d="M0 0 C5.45431648 2.43496272 7.56305429 5.75119385 10 11 C10 12.32 10 13.64 10 15 C-0.56 15 -11.12 15 -22 15 C-20.93447307 7.54131151 -20.80731527 6.80731527 -16 2 C-11.12632202 -1.09758709 -5.55984246 -0.58877688 0 0 Z " fill="#FFFDFC" transform="translate(773,67)"/>
<path d="M0 0 C2.413125 -0.0825 4.82625 -0.165 7.3125 -0.25 C8.06829346 -0.28641602 8.82408691 -0.32283203 9.6027832 -0.36035156 C12.7050029 -0.41186827 14.53776098 -0.38658313 16.95703125 1.63671875 C18.2599044 4.58892195 18.39896431 6.8393007 18.375 10.0625 C18.38273437 11.10535156 18.39046875 12.14820313 18.3984375 13.22265625 C18 16 18 16 16.95703125 17.859375 C13.88748763 19.6484104 10.75210164 19.31179645 7.3125 19.1875 C4.899375 19.125625 2.48625 19.06375 0 19 C0 12.73 0 6.46 0 0 Z " fill="#D6632F" transform="translate(84,130)"/>
<path d="M0 0 C0.99 0.66 1.98 1.32 3 2 C2.34 3.65 1.68 5.3 1 7 C2.32 7 3.64 7 5 7 C5.41271158 11.20965814 5.42484735 13.35587659 3.0625 16.9375 C-0.54256637 19.36540184 -2.65124952 19.66744387 -6.91015625 19.43359375 C-9.92686488 18.80769719 -11.25075932 17.47809096 -13 15 C-14.61707958 11.76584084 -14.56822376 8.49624735 -14 5 C-10.43584164 -0.51869682 -6.13511666 -1.09145334 0 0 Z " fill="#D9642F" transform="translate(50,130)"/>
<path d="M0 0 C7 0 7 0 8.77734375 1.75 C9.16019531 2.4925 9.54304688 3.235 9.9375 4 C10.33839844 4.7425 10.73929688 5.485 11.15234375 6.25 C11.43207031 6.8275 11.71179688 7.405 12 8 C12.33 5.36 12.66 2.72 13 0 C14.65 0 16.3 0 18 0 C18 6.27 18 12.54 18 19 C12 19 12 19 10.3203125 17.46875 C9.92585938 16.8190625 9.53140625 16.169375 9.125 15.5 C8.51011719 14.52546875 8.51011719 14.52546875 7.8828125 13.53125 C7.59148437 13.0259375 7.30015625 12.520625 7 12 C6.67 14.31 6.34 16.62 6 19 C4.02 19 2.04 19 0 19 C0 12.73 0 6.46 0 0 Z " fill="#A24C27" transform="translate(57,130)"/>
<path d="M0 0 C5.28 0 10.56 0 16 0 C16 5.28 16 10.56 16 16 C10.72 16 5.44 16 0 16 C0 10.72 0 5.44 0 0 Z " fill="#252525" transform="translate(515,31)"/>
<path d="M0 0 C1.65 0 3.3 0 5 0 C5 2.31 5 4.62 5 7 C6.98 7 8.96 7 11 7 C11 4.69 11 2.38 11 0 C12.98 0 14.96 0 17 0 C17 6.27 17 12.54 17 19 C15.02 19 13.04 19 11 19 C11 16.69 11 14.38 11 12 C9.02 12 7.04 12 5 12 C5 14.31 5 16.62 5 19 C3.35 19 1.7 19 0 19 C0 12.73 0 6.46 0 0 Z " fill="#C65826" transform="translate(224,130)"/>
<path d="M0 0 C1.98 0 3.96 0 6 0 C7.16938366 2.97810741 8.33504963 5.95765591 9.5 8.9375 C9.83386719 9.78763672 10.16773437 10.63777344 10.51171875 11.51367188 C10.82753906 12.32255859 11.14335938 13.13144531 11.46875 13.96484375 C11.90864258 15.08814087 11.90864258 15.08814087 12.35742188 16.23413086 C13 18 13 18 13 19 C11.00045254 19.04254356 8.99958364 19.04080783 7 19 C6.67 18.67 6.34 18.34 6 18 C3.67182036 17.63239269 1.3381615 17.29758419 -1 17 C-1 17.66 -1 18.32 -1 19 C-2.98 19 -4.96 19 -7 19 C-6.4253379 14.21357393 -5.01754357 10.46211213 -2.9375 6.125 C-2.38964844 4.97257813 -1.84179688 3.82015625 -1.27734375 2.6328125 C-0.85582031 1.76398438 -0.43429688 0.89515625 0 0 Z " fill="#BD5B2E" transform="translate(23,130)"/>
<path d="M0 0 C5.28 0 10.56 0 16 0 C16 1.65 16 3.3 16 5 C12.7 5 9.4 5 6 5 C6 7.64 6 10.28 6 13 C9.3 13 12.6 13 16 13 C16 14.98 16 16.96 16 19 C10.72 19 5.44 19 0 19 C0 12.73 0 6.46 0 0 Z " fill="#974520" transform="translate(145,130)"/>
<path d="M0 0 C2.4962614 0.60302944 3.45930025 1.56126623 5.0859375 3.50390625 C4.4259375 4.82390625 3.7659375 6.14390625 3.0859375 7.50390625 C0.4459375 7.50390625 -2.1940625 7.50390625 -4.9140625 7.50390625 C-4.9140625 9.15390625 -4.9140625 10.80390625 -4.9140625 12.50390625 C-2.9959375 12.44203125 -2.9959375 12.44203125 -1.0390625 12.37890625 C1.140625 12.30859375 1.140625 12.30859375 3.0859375 12.50390625 C5.0859375 14.50390625 5.0859375 14.50390625 5.0859375 17.50390625 C1.07489676 20.17793341 -2.20174737 20.43646599 -6.9140625 19.50390625 C-10.5135359 16.49210198 -11.71490398 14.61919394 -12.5390625 10.00390625 C-11.16651716 2.31765234 -7.34875554 -0.18810808 0 0 Z " fill="#A15635" transform="translate(216.9140625,129.49609375)"/>
<path d="M0 0 C4.95 0 9.9 0 15 0 C15 1.65 15 3.3 15 5 C12.03 5 9.06 5 6 5 C6 7.97 6 10.94 6 14 C8.97 14 11.94 14 15 14 C15 15.65 15 17.3 15 19 C10.05 19 5.1 19 0 19 C0 12.73 0 6.46 0 0 Z " fill="#9B441C" transform="translate(189,130)"/>
<path d="M0 0 C6.4 -0.49230769 6.4 -0.49230769 9.4375 2 C10.2109375 2.99 10.2109375 2.99 11 4 C11.350625 3.34 11.70125 2.68 12.0625 2 C14 0 14 0 17.6875 -0.25 C18.780625 -0.1675 19.87375 -0.085 21 0 C19.80627266 2.82153736 18.59328224 4.42655765 16.4375 6.6875 C13.22340271 10.36480543 13.11562908 14.26971947 13 19 C11.35 19 9.7 19 8 19 C7.979375 17.865625 7.95875 16.73125 7.9375 15.5625 C7.36506188 10.5447221 4.72399694 7.61081337 1.49609375 3.8828125 C0 2 0 2 0 0 Z " fill="#984824" transform="translate(104,130)"/>
<path d="M0 0 C5.61 0 11.22 0 17 0 C17 1.65 17 3.3 17 5 C15.35 5 13.7 5 12 5 C12 9.62 12 14.24 12 19 C10.02 19 8.04 19 6 19 C6 14.38 6 9.76 6 5 C4.02 5 2.04 5 0 5 C0 3.35 0 1.7 0 0 Z " fill="#95431E" transform="translate(126,130)"/>
<path d="M0 0 C5.61 0 11.22 0 17 0 C17 1.65 17 3.3 17 5 C15.02 5 13.04 5 11 5 C11 9.62 11 14.24 11 19 C9.35 19 7.7 19 6 19 C6 14.38 6 9.76 6 5 C4.02 5 2.04 5 0 5 C0 3.35 0 1.7 0 0 Z " fill="#C65623" transform="translate(170,130)"/>
<path d="M0 0 C1.32 0 2.64 0 4 0 C5.921875 2.40625 5.921875 2.40625 7.75 5.5 C8.67039062 7.03140625 8.67039062 7.03140625 9.609375 8.59375 C10.06828125 9.3878125 10.5271875 10.181875 11 11 C11.33 7.37 11.66 3.74 12 0 C12.99 0 13.98 0 15 0 C15 5.61 15 11.22 15 17 C10 16 10 16 8.19921875 14.00390625 C7.70035156 13.19824219 7.20148438 12.39257812 6.6875 11.5625 C5.91986328 10.35787109 5.91986328 10.35787109 5.13671875 9.12890625 C4 7 4 7 4 5 C3.34 5 2.68 5 2 5 C2 8.96 2 12.92 2 17 C1.34 17 0.68 17 0 17 C0 11.39 0 5.78 0 0 Z " fill="#F97030" transform="translate(59,131)"/>
<path d="M0 0 C0.33 0 0.66 0 1 0 C2.40861017 7.04305086 2.17894228 12.92634634 1 20 C-4.28 20 -9.56 20 -15 20 C-15 19.67 -15 19.34 -15 19 C-10.05 19 -5.1 19 0 19 C0 17.35 0 15.7 0 14 C-2.97 14 -5.94 14 -9 14 C-9 11.03 -9 8.06 -9 5 C-6.03 5 -3.06 5 0 5 C0 3.35 0 1.7 0 0 Z " fill="#E9DAD3" transform="translate(204,130)"/>
<path d="M0 0 C1.98 0 3.96 0 6 0 C6 6.27 6 12.54 6 19 C4.02 19 2.04 19 0 19 C0 12.73 0 6.46 0 0 Z " fill="#C25F32" transform="translate(77,130)"/>
<path d="M0 0 C0.33 0 0.66 0 1 0 C1 6.27 1 12.54 1 19 C-0.33333333 17 -1.66666667 15 -3 13 C-4.94569679 12.6743294 -4.94569679 12.6743294 -7.0625 12.875 C-8.361875 12.91625 -9.66125 12.9575 -11 13 C-12 12 -12 12 -12.125 9.5 C-12 7 -12 7 -11 6 C-8.32941149 5.85884839 -5.67567762 5.95752893 -3 6 C-2.01 4.02 -1.02 2.04 0 0 Z " fill="#F7F2F0" transform="translate(223,130)"/>
<path d="M0 0 C0.33 0.99 0.66 1.98 1 3 C0.04287109 3.09087891 0.04287109 3.09087891 -0.93359375 3.18359375 C-1.75988281 3.26738281 -2.58617187 3.35117188 -3.4375 3.4375 C-4.67306641 3.55931641 -4.67306641 3.55931641 -5.93359375 3.68359375 C-7.98662025 3.78930815 -7.98662025 3.78930815 -9 5 C-9.2500773 7.45809998 -9.2500773 7.45809998 -9 10 C-7.23863645 12.18331689 -7.23863645 12.18331689 -5.0546875 12.1953125 C-2.02734375 12.09765625 -2.02734375 12.09765625 1 12 C0.67 12.99 0.34 13.98 0 15 C-4.00336393 15.94196798 -6.16153059 16.4374623 -9.875 14.5 C-12.64839572 11.23718151 -13.07481382 9.26438773 -13 5 C-9.1461353 -1.11302676 -6.86017496 -1.14336249 0 0 Z " fill="#F56D2F" transform="translate(219,132)"/>
<path d="M0 0 C0.99 0.66 1.98 1.32 3 2 C2.34 3.65 1.68 5.3 1 7 C2.32 7 3.64 7 5 7 C5.41271158 11.20965814 5.42484735 13.35587659 3.0625 16.9375 C-0.54256637 19.36540184 -2.65124952 19.66744387 -6.91015625 19.43359375 C-9.92686488 18.80769719 -11.25075932 17.47809096 -13 15 C-14.61707958 11.76584084 -14.56822376 8.49624735 -14 5 C-10.43584164 -0.51869682 -6.13511666 -1.09145334 0 0 Z M-9.875 2.5 C-12.64839572 5.76281849 -13.07481382 7.73561227 -13 12 C-11.65884601 15.00979883 -11.65884601 15.00979883 -9 17 C-5.59471004 18.24838381 -5.59471004 18.24838381 -2 18 C0.9901643 16.59121904 0.9901643 16.59121904 3 14 C3.88593998 10.86136296 3.88593998 10.86136296 4 8 C1.03 7.505 1.03 7.505 -2 7 C-2 6.34 -2 5.68 -2 5 C-1.01 5 -0.02 5 1 5 C0.67 4.01 0.34 3.02 0 2 C-4.00336393 1.05803202 -6.16153059 0.5625377 -9.875 2.5 Z " fill="#9E4F2C" transform="translate(50,130)"/>
<path d="M0 0 C3.96 0 7.92 0 12 0 C12 0.99 12 1.98 12 3 C8.7 3 5.4 3 2 3 C2 6.63 2 10.26 2 14 C5.3 14 8.6 14 12 14 C12 14.99 12 15.98 12 17 C8.04 17 4.08 17 0 17 C0 11.39 0 5.78 0 0 Z " fill="#FA7030" transform="translate(191,131)"/>
<path d="M0 0 C3.96 0 7.92 0 12 0 C12 0.99 12 1.98 12 3 C8.7 3 5.4 3 2 3 C2 6.63 2 10.26 2 14 C5.3 14 8.6 14 12 14 C12 14.99 12 15.98 12 17 C8.04 17 4.08 17 0 17 C0 11.39 0 5.78 0 0 Z " fill="#FA7030" transform="translate(147,131)"/>
<path d="M0 0 C1.2065625 0.0309375 1.2065625 0.0309375 2.4375 0.0625 C2.4375 0.7225 2.4375 1.3825 2.4375 2.0625 C5.4075 2.5575 5.4075 2.5575 8.4375 3.0625 C8.1687159 7.00466678 7.88405191 8.62739814 5 11.4375 C2.4375 13.0625 2.4375 13.0625 0.4375 13.0625 C1.58923355 10.59449953 2.48533565 9.01466435 4.4375 7.0625 C3.4475 7.5575 3.4475 7.5575 2.4375 8.0625 C-1.25480769 9.21634615 -1.25480769 9.21634615 -3.5625 8.0625 C-3.60491723 5.72955225 -3.60342937 3.39547433 -3.5625 1.0625 C-2.5625 0.0625 -2.5625 0.0625 0 0 Z " fill="#EA6B30" transform="translate(45.5625,134.9375)"/>
<path d="M0 0 C4.62 0 9.24 0 14 0 C14 0.99 14 1.98 14 3 C12.02 3 10.04 3 8 3 C8 7.62 8 12.24 8 17 C7.01 17 6.02 17 5 17 C5 12.38 5 7.76 5 3 C3.35 3 1.7 3 0 3 C0 2.01 0 1.02 0 0 Z " fill="#F46D2F" transform="translate(128,131)"/>
<path d="M0 0 C1.32 0 2.64 0 4 0 C6.25 3 6.25 3 8 6 C9.65 4.02 11.3 2.04 13 0 C14.32 0.33 15.64 0.66 17 1 C16.57847656 1.4846875 16.15695313 1.969375 15.72265625 2.46875 C11.70062863 7.38981909 10.22715451 10.6396736 10 17 C9.01 17 8.02 17 7 17 C6.95875 15.865625 6.9175 14.73125 6.875 13.5625 C6.2401176 8.10251139 3.24570965 4.28790999 0 0 Z " fill="#F66E2F" transform="translate(106,131)"/>
<path d="M0 0 C2.64 0 5.28 0 8 0 C8 1.32 8 2.64 8 4 C6.02 4 4.04 4 2 4 C2 4.66 2 5.32 2 6 C3.98 6 5.96 6 8 6 C8.5625 7.9375 8.5625 7.9375 9 10 C8 11 8 11 6.15234375 11.09765625 C4.1015625 11.06510417 2.05078125 11.03255208 0 11 C0 7.37 0 3.74 0 0 Z " fill="#A96242" transform="translate(89,134)"/>
<path d="M0 0 C0 0.66 0 1.32 0 2 C1.98 2 3.96 2 6 2 C6 1.34 6 0.68 6 0 C6.99 0.33 7.98 0.66 9 1 C10.1875 4.0625 10.1875 4.0625 11 7 C9.68 6.67 8.36 6.34 7 6 C7 5.34 7 4.68 7 4 C4.03 4 1.06 4 -2 4 C-1.67 5.32 -1.34 6.64 -1 8 C-2.32 7.67 -3.64 7.34 -5 7 C-4.625 4.0625 -4.625 4.0625 -4 1 C-2 0 -2 0 0 0 Z " fill="#F46E31" transform="translate(23,141)"/>
<path d="M0 0 C0.33 0 0.66 0 1 0 C1 2.97 1 5.94 1 9 C4.63 9 8.26 9 12 9 C12 10.98 12 12.96 12 15 C11.34 14.67 10.68 14.34 10 14 C10 13.01 10 12.02 10 11 C6.7 11 3.4 11 0 11 C0 7.37 0 3.74 0 0 Z " fill="#AF5E39" transform="translate(149,134)"/>
<path d="M0 0 C1.65 0 3.3 0 5 0 C5.38218767 1.65614657 5.71395102 3.32457024 6 5 C5 6 5 6 2.4375 6.0625 C1.2309375 6.0315625 1.2309375 6.0315625 0 6 C0 4.02 0 2.04 0 0 Z " fill="#8B8B8B" transform="translate(195,158)"/>
<path d="M0 0 C1.65 0.33 3.3 0.66 5 1 C4.67 2.65 4.34 4.3 4 6 C2.35 5.67 0.7 5.34 -1 5 C-0.67 3.35 -0.34 1.7 0 0 Z " fill="#8A8A8A" transform="translate(125,158)"/>
<path d="M0 0 C1.98 0 3.96 0 6 0 C6 1.98 6 3.96 6 6 C4.68 5.34 3.36 4.68 2 4 C2 4.66 2 5.32 2 6 C1.34 6 0.68 6 0 6 C0 4.02 0 2.04 0 0 Z " fill="#7E7E7E" transform="translate(155,158)"/>
<path d="M0 0 C3.2626876 3.08632611 6.02235218 5.93483504 8 10 C7.67 10.66 7.34 11.32 7 12 C5.35 9.69 3.7 7.38 2 5 C1.67 7.31 1.34 9.62 1 12 C0.67 12 0.34 12 0 12 C0 8.04 0 4.08 0 0 Z " fill="#9C502D" transform="translate(62,137)"/>
<path d="M0 0 C1.2065625 0.0309375 1.2065625 0.0309375 2.4375 0.0625 C2.4375 0.7225 2.4375 1.3825 2.4375 2.0625 C1.1175 2.0625 -0.2025 2.0625 -1.5625 2.0625 C-1.5625 3.7125 -1.5625 5.3625 -1.5625 7.0625 C-0.2425 7.3925 1.0775 7.7225 2.4375 8.0625 C-1.3125 9.1875 -1.3125 9.1875 -3.5625 8.0625 C-3.60491723 5.72955225 -3.60342937 3.39547433 -3.5625 1.0625 C-2.5625 0.0625 -2.5625 0.0625 0 0 Z " fill="#E0CBC1" transform="translate(45.5625,134.9375)"/>
<path d="M0 0 C0.66 0 1.32 0 2 0 C2.66 0.99 3.32 1.98 4 3 C4.99 2.01 5.98 1.02 7 0 C7 1.98 7 3.96 7 6 C4.69 6 2.38 6 0 6 C0 4.02 0 2.04 0 0 Z " fill="#4E4E4E" transform="translate(233,158)"/>
<path d="M0 0 C0.66 0.66 1.32 1.32 2 2 C2.99 1.34 3.98 0.68 5 0 C5.99 0 6.98 0 8 0 C8.33 0.66 8.66 1.32 9 2 C8.0625 4.125 8.0625 4.125 7 6 C6.34 6 5.68 6 5 6 C4.67 5.34 4.34 4.68 4 4 C3.67 4.66 3.34 5.32 3 6 C2.34 6 1.68 6 1 6 C0.67 4.02 0.34 2.04 0 0 Z " fill="#4F4F4F" transform="translate(134,158)"/>
<path d="M0 0 C1.98 0 3.96 0 6 0 C5.67 1.32 5.34 2.64 5 4 C4.01 4 3.02 4 2 4 C2 4.66 2 5.32 2 6 C1.34 6 0.68 6 0 6 C0 4.02 0 2.04 0 0 Z " fill="#808080" transform="translate(114,158)"/>
<path d="M0 0 C1.98 0.99 1.98 0.99 4 2 C4.66 1.34 5.32 0.68 6 0 C6 1.98 6 3.96 6 6 C5.34 6 4.68 6 4 6 C4 5.34 4 4.68 4 4 C3.34 4 2.68 4 2 4 C2 4.66 2 5.32 2 6 C1.34 6 0.68 6 0 6 C0 4.02 0 2.04 0 0 Z " fill="#6C6C6C" transform="translate(170,158)"/>
<path d="M0 0 C1.65 0 3.3 0 5 0 C5 1.98 5 3.96 5 6 C3.68 5.34 2.36 4.68 1 4 C0.67 4.66 0.34 5.32 0 6 C0 4.02 0 2.04 0 0 Z " fill="#6B6B6B" transform="translate(205,158)"/>
<path d="M0 0 C2.31 0.33 4.62 0.66 7 1 C7.33 1.99 7.66 2.98 8 4 C5.36 4 2.72 4 0 4 C0.66 3.34 1.32 2.68 2 2 C1.34 1.34 0.68 0.68 0 0 Z " fill="#DE6229" transform="translate(43,131)"/>
<path d="M0 0 C2.31 0.33 4.62 0.66 7 1 C7.33 1.99 7.66 2.98 8 4 C5.36 4 2.72 4 0 4 C0.66 3.34 1.32 2.68 2 2 C1.34 1.34 0.68 0.68 0 0 Z " fill="#DE6129" transform="translate(212,131)"/>
<path d="M0 0 C1.32 0.33 2.64 0.66 4 1 C4.33 2.32 4.66 3.64 5 5 C3.35 5.33 1.7 5.66 0 6 C0 4 0 2 0 0 Z " fill="#6D6D6D" transform="translate(244,158)"/>
<path d="M0 0 C0.99 0 1.98 0 3 0 C3 0.66 3 1.32 3 2 C4.32 2 5.64 2 7 2 C7 3.65 7 5.3 7 7 C6.67 5.68 6.34 4.36 6 3 C3.03 3 0.06 3 -3 3 C-2.01 2.67 -1.02 2.34 0 2 C0 1.34 0 0.68 0 0 Z " fill="#8C3B18" transform="translate(48,135)"/>
</svg>
